<svg width="86" height="77" viewBox="0 0 86 77" fill="none" xmlns="http://www.w3.org/2000/svg">
<g opacity="0.3">
<mask id="mask0_1_11" style="mask-type:alpha" maskUnits="userSpaceOnUse" x="0" y="0" width="8" height="9">
<path d="M3.90962 8.14438C6.06885 8.14438 7.81925 6.38832 7.81925 4.22216C7.81925 2.056 6.06885 0.299988 3.90962 0.299988C1.7504 0.299988 0 2.056 0 4.22216C0 6.38832 1.7504 8.14438 3.90962 8.14438Z" fill="url(#paint0_linear_1_11)"/>
</mask>
<g mask="url(#mask0_1_11)">
<path d="M3.90962 8.14438C6.06885 8.14438 7.81925 6.38832 7.81925 4.22216C7.81925 2.056 6.06885 0.299988 3.90962 0.299988C1.7504 0.299988 0 2.056 0 4.22216C0 6.38832 1.7504 8.14438 3.90962 8.14438Z" fill="url(#paint1_linear_1_11)"/>
</g>
<mask id="mask1_1_11" style="mask-type:alpha" maskUnits="userSpaceOnUse" x="22" y="0" width="9" height="9">
<path d="M26.5525 8.14438C28.7117 8.14438 30.4621 6.38832 30.4621 4.22216C30.4621 2.056 28.7117 0.299988 26.5525 0.299988C24.3933 0.299988 22.6429 2.056 22.6429 4.22216C22.6429 6.38832 24.3933 8.14438 26.5525 8.14438Z" fill="url(#paint2_linear_1_11)"/>
</mask>
<g mask="url(#mask1_1_11)">
<path d="M26.5529 8.14438C28.7121 8.14438 30.4625 6.38832 30.4625 4.22216C30.4625 2.056 28.7121 0.299988 26.5529 0.299988C24.3937 0.299988 22.6432 2.056 22.6432 4.22216C22.6432 6.38832 24.3937 8.14438 26.5529 8.14438Z" fill="url(#paint3_linear_1_11)"/>
</g>
<mask id="mask2_1_11" style="mask-type:alpha" maskUnits="userSpaceOnUse" x="45" y="0" width="9" height="9">
<path d="M49.1953 8.14438C51.3546 8.14438 53.105 6.38832 53.105 4.22216C53.105 2.056 51.3546 0.299988 49.1953 0.299988C47.0361 0.299988 45.2857 2.056 45.2857 4.22216C45.2857 6.38832 47.0361 8.14438 49.1953 8.14438Z" fill="url(#paint4_linear_1_11)"/>
</mask>
<g mask="url(#mask2_1_11)">
<path d="M49.196 8.14438C51.3552 8.14438 53.1056 6.38832 53.1056 4.22216C53.1056 2.056 51.3552 0.299988 49.196 0.299988C47.0368 0.299988 45.2864 2.056 45.2864 4.22216C45.2864 6.38832 47.0368 8.14438 49.196 8.14438Z" fill="url(#paint5_linear_1_11)"/>
</g>
<mask id="mask3_1_11" style="mask-type:alpha" maskUnits="userSpaceOnUse" x="67" y="0" width="9" height="9">
<path d="M71.8382 8.14438C73.9974 8.14438 75.7478 6.38832 75.7478 4.22216C75.7478 2.056 73.9974 0.299988 71.8382 0.299988C69.6789 0.299988 67.9285 2.056 67.9285 4.22216C67.9285 6.38832 69.6789 8.14438 71.8382 8.14438Z" fill="url(#paint6_linear_1_11)"/>
</mask>
<g mask="url(#mask3_1_11)">
<path d="M71.8388 8.14438C73.998 8.14438 75.7484 6.38832 75.7484 4.22216C75.7484 2.056 73.998 0.299988 71.8388 0.299988C69.6795 0.299988 67.9291 2.056 67.9291 4.22216C67.9291 6.38832 69.6795 8.14438 71.8388 8.14438Z" fill="url(#paint7_linear_1_11)"/>
</g>
<mask id="mask4_1_11" style="mask-type:alpha" maskUnits="userSpaceOnUse" x="0" y="19" width="8" height="9">
<path d="M3.90962 27.8369C6.06885 27.8369 7.81925 26.0809 7.81925 23.9148C7.81925 21.7486 6.06885 19.9926 3.90962 19.9926C1.7504 19.9926 0 21.7486 0 23.9148C0 26.0809 1.7504 27.8369 3.90962 27.8369Z" fill="url(#paint8_linear_1_11)"/>
</mask>
<g mask="url(#mask4_1_11)">
<path d="M3.90962 27.837C6.06885 27.837 7.81925 26.081 7.81925 23.9148C7.81925 21.7487 6.06885 19.9927 3.90962 19.9927C1.7504 19.9927 0 21.7487 0 23.9148C0 26.081 1.7504 27.837 3.90962 27.837Z" fill="url(#paint9_linear_1_11)"/>
</g>
<mask id="mask5_1_11" style="mask-type:alpha" maskUnits="userSpaceOnUse" x="22" y="19" width="9" height="9">
<path d="M26.5525 27.8371C28.7117 27.8371 30.4621 26.081 30.4621 23.9149C30.4621 21.7487 28.7117 19.9927 26.5525 19.9927C24.3933 19.9927 22.6429 21.7487 22.6429 23.9149C22.6429 26.081 24.3933 27.8371 26.5525 27.8371Z" fill="url(#paint10_linear_1_11)"/>
</mask>
<g mask="url(#mask5_1_11)">
<path d="M26.5529 27.837C28.7121 27.837 30.4625 26.081 30.4625 23.9148C30.4625 21.7487 28.7121 19.9927 26.5529 19.9927C24.3937 19.9927 22.6432 21.7487 22.6432 23.9148C22.6432 26.081 24.3937 27.837 26.5529 27.837Z" fill="url(#paint11_linear_1_11)"/>
</g>
<mask id="mask6_1_11" style="mask-type:alpha" maskUnits="userSpaceOnUse" x="45" y="19" width="9" height="9">
<path d="M49.1953 27.8371C51.3546 27.8371 53.105 26.081 53.105 23.9149C53.105 21.7487 51.3546 19.9927 49.1953 19.9927C47.0361 19.9927 45.2857 21.7487 45.2857 23.9149C45.2857 26.081 47.0361 27.8371 49.1953 27.8371Z" fill="url(#paint12_linear_1_11)"/>
</mask>
<g mask="url(#mask6_1_11)">
<path d="M49.196 27.837C51.3552 27.837 53.1056 26.081 53.1056 23.9148C53.1056 21.7487 51.3552 19.9927 49.196 19.9927C47.0368 19.9927 45.2864 21.7487 45.2864 23.9148C45.2864 26.081 47.0368 27.837 49.196 27.837Z" fill="url(#paint13_linear_1_11)"/>
</g>
<mask id="mask7_1_11" style="mask-type:alpha" maskUnits="userSpaceOnUse" x="67" y="19" width="9" height="9">
<path d="M71.8382 27.8371C73.9974 27.8371 75.7478 26.081 75.7478 23.9149C75.7478 21.7487 73.9974 19.9927 71.8382 19.9927C69.6789 19.9927 67.9285 21.7487 67.9285 23.9149C67.9285 26.081 69.6789 27.8371 71.8382 27.8371Z" fill="url(#paint14_linear_1_11)"/>
</mask>
<g mask="url(#mask7_1_11)">
<path d="M71.8388 27.837C73.998 27.837 75.7484 26.081 75.7484 23.9148C75.7484 21.7487 73.998 19.9927 71.8388 19.9927C69.6795 19.9927 67.9291 21.7487 67.9291 23.9148C67.9291 26.081 69.6795 27.837 71.8388 27.837Z" fill="url(#paint15_linear_1_11)"/>
</g>
<mask id="mask8_1_11" style="mask-type:alpha" maskUnits="userSpaceOnUse" x="0" y="39" width="8" height="9">
<path d="M3.90962 47.4889C6.06885 47.4889 7.81925 45.7328 7.81925 43.5667C7.81925 41.4005 6.06885 39.6445 3.90962 39.6445C1.7504 39.6445 0 41.4005 0 43.5667C0 45.7328 1.7504 47.4889 3.90962 47.4889Z" fill="url(#paint16_linear_1_11)"/>
</mask>
<g mask="url(#mask8_1_11)">
<path d="M3.90962 47.489C6.06885 47.489 7.81925 45.7329 7.81925 43.5668C7.81925 41.4006 6.06885 39.6446 3.90962 39.6446C1.7504 39.6446 0 41.4006 0 43.5668C0 45.7329 1.7504 47.489 3.90962 47.489Z" fill="url(#paint17_linear_1_11)"/>
</g>
<mask id="mask9_1_11" style="mask-type:alpha" maskUnits="userSpaceOnUse" x="22" y="39" width="9" height="9">
<path d="M26.5525 47.4891C28.7117 47.4891 30.4621 45.7331 30.4621 43.5669C30.4621 41.4008 28.7117 39.6447 26.5525 39.6447C24.3933 39.6447 22.6429 41.4008 22.6429 43.5669C22.6429 45.7331 24.3933 47.4891 26.5525 47.4891Z" fill="url(#paint18_linear_1_11)"/>
</mask>
<g mask="url(#mask9_1_11)">
<path d="M26.5529 47.489C28.7121 47.489 30.4625 45.7329 30.4625 43.5668C30.4625 41.4006 28.7121 39.6446 26.5529 39.6446C24.3937 39.6446 22.6432 41.4006 22.6432 43.5668C22.6432 45.7329 24.3937 47.489 26.5529 47.489Z" fill="url(#paint19_linear_1_11)"/>
</g>
<mask id="mask10_1_11" style="mask-type:alpha" maskUnits="userSpaceOnUse" x="45" y="39" width="9" height="9">
<path d="M49.1953 47.4891C51.3546 47.4891 53.105 45.7331 53.105 43.5669C53.105 41.4008 51.3546 39.6447 49.1953 39.6447C47.0361 39.6447 45.2857 41.4008 45.2857 43.5669C45.2857 45.7331 47.0361 47.4891 49.1953 47.4891Z" fill="url(#paint20_linear_1_11)"/>
</mask>
<g mask="url(#mask10_1_11)">
<path d="M49.196 47.489C51.3552 47.489 53.1056 45.7329 53.1056 43.5668C53.1056 41.4006 51.3552 39.6446 49.196 39.6446C47.0368 39.6446 45.2864 41.4006 45.2864 43.5668C45.2864 45.7329 47.0368 47.489 49.196 47.489Z" fill="url(#paint21_linear_1_11)"/>
</g>
<mask id="mask11_1_11" style="mask-type:alpha" maskUnits="userSpaceOnUse" x="67" y="39" width="9" height="9">
<path d="M71.8382 47.4891C73.9974 47.4891 75.7478 45.7331 75.7478 43.5669C75.7478 41.4008 73.9974 39.6447 71.8382 39.6447C69.6789 39.6447 67.9285 41.4008 67.9285 43.5669C67.9285 45.7331 69.6789 47.4891 71.8382 47.4891Z" fill="url(#paint22_linear_1_11)"/>
</mask>
<g mask="url(#mask11_1_11)">
<path d="M71.8388 47.489C73.998 47.489 75.7484 45.7329 75.7484 43.5668C75.7484 41.4006 73.998 39.6446 71.8388 39.6446C69.6795 39.6446 67.9291 41.4006 67.9291 43.5668C67.9291 45.7329 69.6795 47.489 71.8388 47.489Z" fill="url(#paint23_linear_1_11)"/>
</g>
<mask id="mask12_1_11" style="mask-type:alpha" maskUnits="userSpaceOnUse" x="0" y="59" width="8" height="9">
<path d="M3.90962 67.1819C6.06885 67.1819 7.81925 65.4258 7.81925 63.2596C7.81925 61.0935 6.06885 59.3375 3.90962 59.3375C1.7504 59.3375 0 61.0935 0 63.2596C0 65.4258 1.7504 67.1819 3.90962 67.1819Z" fill="url(#paint24_linear_1_11)"/>
</mask>
<g mask="url(#mask12_1_11)">
<path d="M3.90962 67.1816C6.06885 67.1816 7.81925 65.4256 7.81925 63.2594C7.81925 61.0932 6.06885 59.3372 3.90962 59.3372C1.7504 59.3372 0 61.0932 0 63.2594C0 65.4256 1.7504 67.1816 3.90962 67.1816Z" fill="url(#paint25_linear_1_11)"/>
</g>
<mask id="mask13_1_11" style="mask-type:alpha" maskUnits="userSpaceOnUse" x="22" y="59" width="9" height="9">
<path d="M26.5525 67.1819C28.7117 67.1819 30.4621 65.4258 30.4621 63.2596C30.4621 61.0935 28.7117 59.3375 26.5525 59.3375C24.3933 59.3375 22.6429 61.0935 22.6429 63.2596C22.6429 65.4258 24.3933 67.1819 26.5525 67.1819Z" fill="url(#paint26_linear_1_11)"/>
</mask>
<g mask="url(#mask13_1_11)">
<path d="M26.5529 67.1816C28.7121 67.1816 30.4625 65.4256 30.4625 63.2594C30.4625 61.0932 28.7121 59.3372 26.5529 59.3372C24.3937 59.3372 22.6432 61.0932 22.6432 63.2594C22.6432 65.4256 24.3937 67.1816 26.5529 67.1816Z" fill="url(#paint27_linear_1_11)"/>
</g>
<mask id="mask14_1_11" style="mask-type:alpha" maskUnits="userSpaceOnUse" x="45" y="59" width="9" height="9">
<path d="M49.1953 67.1819C51.3546 67.1819 53.105 65.4258 53.105 63.2596C53.105 61.0935 51.3546 59.3375 49.1953 59.3375C47.0361 59.3375 45.2857 61.0935 45.2857 63.2596C45.2857 65.4258 47.0361 67.1819 49.1953 67.1819Z" fill="url(#paint28_linear_1_11)"/>
</mask>
<g mask="url(#mask14_1_11)">
<path d="M49.196 67.1816C51.3552 67.1816 53.1056 65.4256 53.1056 63.2594C53.1056 61.0932 51.3552 59.3372 49.196 59.3372C47.0368 59.3372 45.2864 61.0932 45.2864 63.2594C45.2864 65.4256 47.0368 67.1816 49.196 67.1816Z" fill="url(#paint29_linear_1_11)"/>
</g>
<mask id="mask15_1_11" style="mask-type:alpha" maskUnits="userSpaceOnUse" x="67" y="59" width="9" height="9">
<path d="M71.8382 67.1819C73.9974 67.1819 75.7478 65.4258 75.7478 63.2596C75.7478 61.0935 73.9974 59.3375 71.8382 59.3375C69.6789 59.3375 67.9285 61.0935 67.9285 63.2596C67.9285 65.4258 69.6789 67.1819 71.8382 67.1819Z" fill="url(#paint30_linear_1_11)"/>
</mask>
<g mask="url(#mask15_1_11)">
<path d="M71.8388 67.1816C73.998 67.1816 75.7484 65.4256 75.7484 63.2594C75.7484 61.0932 73.998 59.3372 71.8388 59.3372C69.6795 59.3372 67.9291 61.0932 67.9291 63.2594C67.9291 65.4256 69.6795 67.1816 71.8388 67.1816Z" fill="url(#paint31_linear_1_11)"/>
</g>
</g>
<defs>
<linearGradient id="paint0_linear_1_11" x1="38.076" y1="91.2295" x2="-15.8975" y2="-45.3413" gradientUnits="userSpaceOnUse">
<stop stop-color="#FFA434"/>
<stop offset="1" stop-color="#FFA434"/>
</linearGradient>
<linearGradient id="paint1_linear_1_11" x1="38.076" y1="91.2295" x2="-15.8975" y2="-45.3413" gradientUnits="userSpaceOnUse">
<stop stop-color="#FFA434"/>
<stop offset="1" stop-color="#FFA434"/>
</linearGradient>
<linearGradient id="paint2_linear_1_11" x1="60.7189" y1="91.2295" x2="6.74546" y2="-45.3413" gradientUnits="userSpaceOnUse">
<stop stop-color="#FFA434"/>
<stop offset="1" stop-color="#FFA434"/>
</linearGradient>
<linearGradient id="paint3_linear_1_11" x1="60.7193" y1="91.2295" x2="6.74583" y2="-45.3413" gradientUnits="userSpaceOnUse">
<stop stop-color="#FFA434"/>
<stop offset="1" stop-color="#FFA434"/>
</linearGradient>
<linearGradient id="paint4_linear_1_11" x1="83.3617" y1="91.2295" x2="29.3883" y2="-45.3413" gradientUnits="userSpaceOnUse">
<stop stop-color="#FFA434"/>
<stop offset="1" stop-color="#FFA434"/>
</linearGradient>
<linearGradient id="paint5_linear_1_11" x1="83.3624" y1="91.2295" x2="29.389" y2="-45.3413" gradientUnits="userSpaceOnUse">
<stop stop-color="#FFA434"/>
<stop offset="1" stop-color="#FFA434"/>
</linearGradient>
<linearGradient id="paint6_linear_1_11" x1="106.005" y1="91.2295" x2="52.0311" y2="-45.3413" gradientUnits="userSpaceOnUse">
<stop stop-color="#FFA434"/>
<stop offset="1" stop-color="#FFA434"/>
</linearGradient>
<linearGradient id="paint7_linear_1_11" x1="106.005" y1="91.2295" x2="52.0317" y2="-45.3413" gradientUnits="userSpaceOnUse">
<stop stop-color="#FFA434"/>
<stop offset="1" stop-color="#FFA434"/>
</linearGradient>
<linearGradient id="paint8_linear_1_11" x1="38.076" y1="110.921" x2="-15.8966" y2="-25.6485" gradientUnits="userSpaceOnUse">
<stop stop-color="#FFA434"/>
<stop offset="1" stop-color="#FFA434"/>
</linearGradient>
<linearGradient id="paint9_linear_1_11" x1="38.076" y1="110.921" x2="-15.8966" y2="-25.6485" gradientUnits="userSpaceOnUse">
<stop stop-color="#FFA434"/>
<stop offset="1" stop-color="#FFA434"/>
</linearGradient>
<linearGradient id="paint10_linear_1_11" x1="60.7189" y1="110.921" x2="6.74638" y2="-25.6485" gradientUnits="userSpaceOnUse">
<stop stop-color="#FFA434"/>
<stop offset="1" stop-color="#FFA434"/>
</linearGradient>
<linearGradient id="paint11_linear_1_11" x1="60.7193" y1="110.921" x2="6.74675" y2="-25.6485" gradientUnits="userSpaceOnUse">
<stop stop-color="#FFA434"/>
<stop offset="1" stop-color="#FFA434"/>
</linearGradient>
<linearGradient id="paint12_linear_1_11" x1="83.3617" y1="110.921" x2="29.3892" y2="-25.6485" gradientUnits="userSpaceOnUse">
<stop stop-color="#FFA434"/>
<stop offset="1" stop-color="#FFA434"/>
</linearGradient>
<linearGradient id="paint13_linear_1_11" x1="83.3624" y1="110.921" x2="29.3899" y2="-25.6485" gradientUnits="userSpaceOnUse">
<stop stop-color="#FFA434"/>
<stop offset="1" stop-color="#FFA434"/>
</linearGradient>
<linearGradient id="paint14_linear_1_11" x1="106.005" y1="110.921" x2="52.032" y2="-25.6485" gradientUnits="userSpaceOnUse">
<stop stop-color="#FFA434"/>
<stop offset="1" stop-color="#FFA434"/>
</linearGradient>
<linearGradient id="paint15_linear_1_11" x1="106.005" y1="110.921" x2="52.0326" y2="-25.6485" gradientUnits="userSpaceOnUse">
<stop stop-color="#FFA434"/>
<stop offset="1" stop-color="#FFA434"/>
</linearGradient>
<linearGradient id="paint16_linear_1_11" x1="38.076" y1="130.574" x2="-15.8975" y2="-5.99677" gradientUnits="userSpaceOnUse">
<stop stop-color="#FFA434"/>
<stop offset="1" stop-color="#FFA434"/>
</linearGradient>
<linearGradient id="paint17_linear_1_11" x1="38.076" y1="130.574" x2="-15.8975" y2="-5.99668" gradientUnits="userSpaceOnUse">
<stop stop-color="#FFA434"/>
<stop offset="1" stop-color="#FFA434"/>
</linearGradient>
<linearGradient id="paint18_linear_1_11" x1="60.7189" y1="130.574" x2="6.74546" y2="-5.99654" gradientUnits="userSpaceOnUse">
<stop stop-color="#FFA434"/>
<stop offset="1" stop-color="#FFA434"/>
</linearGradient>
<linearGradient id="paint19_linear_1_11" x1="60.7193" y1="130.574" x2="6.74583" y2="-5.99673" gradientUnits="userSpaceOnUse">
<stop stop-color="#FFA434"/>
<stop offset="1" stop-color="#FFA434"/>
</linearGradient>
<linearGradient id="paint20_linear_1_11" x1="83.3617" y1="130.574" x2="29.3883" y2="-5.99654" gradientUnits="userSpaceOnUse">
<stop stop-color="#FFA434"/>
<stop offset="1" stop-color="#FFA434"/>
</linearGradient>
<linearGradient id="paint21_linear_1_11" x1="83.3624" y1="130.574" x2="29.389" y2="-5.99673" gradientUnits="userSpaceOnUse">
<stop stop-color="#FFA434"/>
<stop offset="1" stop-color="#FFA434"/>
</linearGradient>
<linearGradient id="paint22_linear_1_11" x1="106.005" y1="130.574" x2="52.0311" y2="-5.99654" gradientUnits="userSpaceOnUse">
<stop stop-color="#FFA434"/>
<stop offset="1" stop-color="#FFA434"/>
</linearGradient>
<linearGradient id="paint23_linear_1_11" x1="106.005" y1="130.574" x2="52.0317" y2="-5.99673" gradientUnits="userSpaceOnUse">
<stop stop-color="#FFA434"/>
<stop offset="1" stop-color="#FFA434"/>
</linearGradient>
<linearGradient id="paint24_linear_1_11" x1="38.076" y1="150.267" x2="-15.8975" y2="13.6962" gradientUnits="userSpaceOnUse">
<stop stop-color="#FFA434"/>
<stop offset="1" stop-color="#FFA434"/>
</linearGradient>
<linearGradient id="paint25_linear_1_11" x1="38.076" y1="150.267" x2="-15.8975" y2="13.696" gradientUnits="userSpaceOnUse">
<stop stop-color="#FFA434"/>
<stop offset="1" stop-color="#FFA434"/>
</linearGradient>
<linearGradient id="paint26_linear_1_11" x1="60.7189" y1="150.267" x2="6.74546" y2="13.6962" gradientUnits="userSpaceOnUse">
<stop stop-color="#FFA434"/>
<stop offset="1" stop-color="#FFA434"/>
</linearGradient>
<linearGradient id="paint27_linear_1_11" x1="60.7193" y1="150.267" x2="6.74583" y2="13.6959" gradientUnits="userSpaceOnUse">
<stop stop-color="#FFA434"/>
<stop offset="1" stop-color="#FFA434"/>
</linearGradient>
<linearGradient id="paint28_linear_1_11" x1="83.3617" y1="150.267" x2="29.3883" y2="13.6962" gradientUnits="userSpaceOnUse">
<stop stop-color="#FFA434"/>
<stop offset="1" stop-color="#FFA434"/>
</linearGradient>
<linearGradient id="paint29_linear_1_11" x1="83.3624" y1="150.267" x2="29.389" y2="13.6959" gradientUnits="userSpaceOnUse">
<stop stop-color="#FFA434"/>
<stop offset="1" stop-color="#FFA434"/>
</linearGradient>
<linearGradient id="paint30_linear_1_11" x1="106.005" y1="150.267" x2="52.0311" y2="13.6962" gradientUnits="userSpaceOnUse">
<stop stop-color="#FFA434"/>
<stop offset="1" stop-color="#FFA434"/>
</linearGradient>
<linearGradient id="paint31_linear_1_11" x1="106.005" y1="150.267" x2="52.0317" y2="13.6959" gradientUnits="userSpaceOnUse">
<stop stop-color="#FFA434"/>
<stop offset="1" stop-color="#FFA434"/>
</linearGradient>
</defs>
</svg>
